<svg width="778px" height="141px" viewBox="0 0 778 141" version="1.1" xmlns="http://www.w3.org/2000/svg" xmlns:xlink="http://www.w3.org/1999/xlink">
    <title>ShapeShifter Dark</title>
    <g id="Page-1" stroke="none" stroke-width="1" fill="none" fill-rule="evenodd">
        <g id="ShapeShifter-Dark" transform="translate(0.3655, 0.7731)" fill-rule="nonzero">
            <g id="Shifter" transform="translate(330, 44.775)" fill="#052936" opacity="0.946938651">
                <polygon id="Path" points="130.823333 0.0450196004 119.383333 0.0450196004 119.383333 38.0050196 87.5333333 38.0050196 87.5333333 0.0450196004 76.0933333 0.0450196004 76.0933333 92.8650196 87.5333333 92.8650196 87.5333333 48.1450196 119.383333 48.1450196 119.383333 92.8650196 130.823333 92.8650196"></polygon>
                <polygon id="Path" points="153.486667 92.8650196 164.926667 92.8650196 164.926667 0.0450196004 153.486667 0.0450196004"></polygon>
                <polygon id="Path" points="187.59 92.8650196 199.03 92.8650196 199.03 49.4450196 233.48 49.4450196 233.48 39.3050196 199.03 39.3050196 199.03 10.1850196 235.56 10.1850196 235.56 0.0450196004 187.59 0.0450196004"></polygon>
                <polygon id="Path" points="281.103333 10.1850196 304.503333 10.1850196 304.503333 0.0450196004 246.393333 0.0450196004 246.393333 10.1850196 269.663333 10.1850196 269.663333 92.8650196 281.103333 92.8650196"></polygon>
                <polygon id="Path" points="320.666667 92.8650196 370.196667 92.8650196 370.196667 82.7250196 332.106667 82.7250196 332.106667 49.4450196 366.556667 49.4450196 366.556667 39.3050196 332.106667 39.3050196 332.106667 10.1850196 368.636667 10.1850196 368.636667 0.0450196004 320.666667 0.0450196004"></polygon>
                <path d="M388.44,92.8650196 L399.88,92.8650196 L399.88,51.5250196 L415.35,51.5250196 C421.2,51.5250196 428.22,52.3050196 429.13,65.0450196 L429.91,79.4750196 C430.17,84.0250196 431.08,90.9150196 433.03,92.8650196 L446.81,92.8650196 C444.08,91.1750196 442.39,88.5750196 441.87,78.3050196 L441.09,62.4450196 C440.57,54.5150196 436.02,47.8850196 427.96,46.9750196 L427.96,46.7150196 C438.75,44.1150196 442.26,33.4550196 442.26,23.3150196 C442.26,8.6250196 433.03,0.0450196004 418.47,0.0450196004 L388.44,0.0450196004 L388.44,92.8650196 Z M399.88,9.4050196 L413.53,9.4050196 C424.19,9.4050196 430.3,15.1250196 430.3,24.2250196 C430.3,42.1650196 417.95,42.1650196 411.19,42.1650196 L399.88,42.1650196 L399.88,9.4050196 Z" id="Shape"></path>
                <path d="M16.4828616,32.8039845 C20.1897858,37.1900214 26.5092446,39.2069384 33.0659157,41.3287356 L34.3779376,41.7546483 C45.545019,45.3991726 56.94,49.8207196 56.94,67.1250196 C56.94,88.5750196 41.21,94.6850196 28.08,94.6850196 C6.37,94.6850196 0,83.5050196 0,63.7450196 L11.44,63.7450196 C11.44,63.9530196 11.44026,64.1613316 11.4409038,64.3698599 L11.4441101,64.9959982 C11.4487152,65.622594 11.457888,66.2502756 11.47497,66.8764596 L11.4948122,67.5020487 C11.828128,76.6672276 14.1024,85.3250196 28.86,85.3250196 C37.96,85.3250196 44.98,78.8250196 44.98,68.9450196 C44.98,49.9325791 22.0153652,52.6581758 9.33923737,42.6845796 Z M40.193585,1.67976744e-13 C49.6783071,3.36526128 54.1474791,11.4848987 54.34,24.0950196 L42.9,24.0950196 C42.9,16.2893398 40.6503273,10.400048 34.1498166,8.36160369 Z" id="Combined-Shape"></path>
            </g>
            <g id="Shape" fill="#021C25" opacity="0.83800107">
                <path d="M54.34,25.87 C54.08,8.84 46.02,0 28.34,0 C4.81,0 1.17,17.03 1.17,25.61 C1.17,59.67 44.98,44.46 44.98,70.72 C44.98,80.6 37.96,87.1 28.86,87.1 C12.09,87.1 11.44,75.92 11.44,65.52 L0,65.52 C0,85.28 6.37,96.46 28.08,96.46 C41.21,96.46 56.94,90.35 56.94,68.9 C56.94,34.97 13.13,50.57 13.13,24.44 C13.13,14.56 18.85,9.36 28.47,9.36 C39.39,9.36 42.9,16.12 42.9,25.87 L54.34,25.87 Z" id="Path"></path>
                <polygon id="Path" points="130.823333 1.82 119.383333 1.82 119.383333 39.78 87.5333333 39.78 87.5333333 1.82 76.0933333 1.82 76.0933333 94.64 87.5333333 94.64 87.5333333 49.92 119.383333 49.92 119.383333 94.64 130.823333 94.64"></polygon>
                <path d="M144.906667,94.64 L156.866667,94.64 L163.756667,69.16 L193.396667,69.16 L200.026667,94.64 L211.986667,94.64 L187.026667,1.82 L171.686667,1.82 L144.906667,94.64 Z M178.966667,14.95 L179.226667,14.95 L191.056667,59.8 L166.096667,59.8 L178.966667,14.95 Z"></path>
                <path d="M226.07,94.64 L237.51,94.64 L237.51,55.38 L251.68,55.38 C267.41,55.38 278.46,45.76 278.46,28.47 C278.46,1.82 257.79,1.82 249.73,1.82 L226.07,1.82 L226.07,94.64 Z M237.51,11.18 L250.38,11.18 C261.69,11.18 266.5,17.81 266.5,27.95 C266.5,40.3 259.48,46.02 251.16,46.02 L237.51,46.02 L237.51,11.18 Z"></path>
                <path d="M344.153333,1.82 L344.153333,11.96 L307.623333,11.96 L307.623333,41.08 L342.073333,41.08 L342.073333,51.22 L307.623333,51.22 L307.623333,84.5 L330.280333,84.499 L322.732333,94.64 L296.183333,94.64 L296.183333,1.82 L344.153333,1.82 Z" id="Combined-Shape"></path>
            </g>
        </g>
    </g>
</svg>
